<?xml version="1.0" encoding="UTF-8" standalone="no"?>
<!DOCTYPE svg PUBLIC "-//W3C//DTD SVG 1.1//EN"
 "http://www.w3.org/Graphics/SVG/1.1/DTD/svg11.dtd">
<!-- Generated by graphviz version 2.40.1 (20161225.0304)
 -->
<!-- Title: dependencies Pages: 1 -->
<svg width="8922pt" height="284pt"
 viewBox="0.00 0.00 8922.00 284.00" xmlns="http://www.w3.org/2000/svg" xmlns:xlink="http://www.w3.org/1999/xlink">
<g id="graph0" class="graph" transform="scale(1 1) rotate(0) translate(4 280)">
<title>dependencies</title>
<polygon fill="#ffffff" stroke="transparent" points="-4,4 -4,-280 8918,-280 8918,4 -4,4"/>
<text text-anchor="start" x="4436.0091" y="-42.4" font-family="sans-serif" font-weight="bold" font-size="14.00" fill="#000000">Legend</text>
<polygon fill="#ffffb3" stroke="transparent" points="4223,-10 4223,-30 4243,-30 4243,-10 4223,-10"/>
<text text-anchor="start" x="4246.629" y="-15.4" font-family="sans-serif" font-size="14.00" fill="#000000"> &#160;Declarations</text>
<polygon fill="#8dd3c7" stroke="transparent" points="4336,-10 4336,-30 4356,-30 4356,-10 4336,-10"/>
<text text-anchor="start" x="4359.7251" y="-15.4" font-family="sans-serif" font-size="14.00" fill="#000000"> &#160;Module</text>
<polygon fill="#80b1d3" stroke="transparent" points="4422,-10 4422,-30 4442,-30 4442,-10 4422,-10"/>
<text text-anchor="start" x="4445.7812" y="-15.4" font-family="sans-serif" font-size="14.00" fill="#000000"> &#160;Bootstrap</text>
<polygon fill="#fdb462" stroke="transparent" points="4519,-10 4519,-30 4539,-30 4539,-10 4519,-10"/>
<text text-anchor="start" x="4542.6732" y="-15.4" font-family="sans-serif" font-size="14.00" fill="#000000"> &#160;Providers</text>
<polygon fill="#fb8072" stroke="transparent" points="4615,-10 4615,-30 4635,-30 4635,-10 4615,-10"/>
<text text-anchor="start" x="4638.7258" y="-15.4" font-family="sans-serif" font-size="14.00" fill="#000000"> &#160;Exports</text>
<g id="clust1" class="cluster">
<title>cluster_AppModule</title>
<polygon fill="none" stroke="#000000" stroke-dasharray="1,5" points="8,-70 8,-268 8906,-268 8906,-70 8,-70"/>
</g>
<g id="clust2" class="cluster">
<title>cluster_AppModule_declarations</title>
<polygon fill="none" stroke="#000000" points="2893,-78 2893,-130 8898,-130 8898,-78 2893,-78"/>
</g>
<g id="clust37" class="cluster">
<title>cluster_AppModule_imports</title>
<polygon fill="none" stroke="#000000" points="2741,-78 2741,-130 2885,-130 2885,-78 2741,-78"/>
</g>
<g id="clust39" class="cluster">
<title>cluster_AppModule_bootstrap</title>
<polygon fill="none" stroke="#000000" points="4420,-208 4420,-260 4544,-260 4544,-208 4420,-208"/>
</g>
<g id="clust40" class="cluster">
<title>cluster_AppModule_providers</title>
<polygon fill="none" stroke="#000000" points="16,-78 16,-130 2733,-130 2733,-78 16,-78"/>
</g>
<!-- UserComponent -->
<g id="node1" class="node">
<title>UserComponent</title>
<polygon fill="#ffffb3" stroke="#000000" points="8889.7591,-122 8782.2409,-122 8782.2409,-86 8889.7591,-86 8889.7591,-122"/>
<text text-anchor="middle" x="8836" y="-99.8" font-family="Times,serif" font-size="14.00" fill="#000000">UserComponent</text>
</g>
<!-- AppModule -->
<g id="node35" class="node">
<title>AppModule</title>
<polygon fill="#8dd3c7" stroke="#000000" points="4523.6571,-187 4520.6571,-191 4499.6571,-191 4496.6571,-187 4440.3429,-187 4440.3429,-151 4523.6571,-151 4523.6571,-187"/>
<text text-anchor="middle" x="4482" y="-164.8" font-family="Times,serif" font-size="14.00" fill="#000000">AppModule</text>
</g>
<!-- UserComponent&#45;&gt;AppModule -->
<g id="edge1" class="edge">
<title>UserComponent&#45;&gt;AppModule</title>
<path fill="none" stroke="#000000" d="M8836,-122.1985C8836,-146.3563 8836,-186 8836,-186 8836,-186 4533.6968,-186 4533.6968,-186"/>
<polygon fill="#000000" stroke="#000000" points="4533.6969,-182.5001 4523.6968,-186 4533.6968,-189.5001 4533.6969,-182.5001"/>
</g>
<!-- HomeComponent -->
<g id="node2" class="node">
<title>HomeComponent</title>
<polygon fill="#ffffb3" stroke="#000000" points="8763.5451,-122 8648.4549,-122 8648.4549,-86 8763.5451,-86 8763.5451,-122"/>
<text text-anchor="middle" x="8706" y="-99.8" font-family="Times,serif" font-size="14.00" fill="#000000">HomeComponent</text>
</g>
<!-- HomeComponent&#45;&gt;AppModule -->
<g id="edge2" class="edge">
<title>HomeComponent&#45;&gt;AppModule</title>
<path fill="none" stroke="#000000" d="M8706,-122.3802C8706,-146.2785 8706,-185 8706,-185 8706,-185 4533.8064,-185 4533.8064,-185"/>
<polygon fill="#000000" stroke="#000000" points="4533.8064,-181.5001 4523.8064,-185 4533.8064,-188.5001 4533.8064,-181.5001"/>
</g>
<!-- SignUpComponent -->
<g id="node3" class="node">
<title>SignUpComponent</title>
<polygon fill="#ffffb3" stroke="#000000" points="8630.1123,-122 8505.8877,-122 8505.8877,-86 8630.1123,-86 8630.1123,-122"/>
<text text-anchor="middle" x="8568" y="-99.8" font-family="Times,serif" font-size="14.00" fill="#000000">SignUpComponent</text>
</g>
<!-- SignUpComponent&#45;&gt;AppModule -->
<g id="edge3" class="edge">
<title>SignUpComponent&#45;&gt;AppModule</title>
<path fill="none" stroke="#000000" d="M8568,-122.3228C8568,-145.6602 8568,-183 8568,-183 8568,-183 4533.7715,-183 4533.7715,-183"/>
<polygon fill="#000000" stroke="#000000" points="4533.7715,-179.5001 4523.7715,-183 4533.7715,-186.5001 4533.7715,-179.5001"/>
</g>
<!-- AppComponent -->
<g id="node4" class="node">
<title>AppComponent</title>
<polygon fill="#ffffb3" stroke="#000000" points="8487.9399,-122 8382.0601,-122 8382.0601,-86 8487.9399,-86 8487.9399,-122"/>
<text text-anchor="middle" x="8435" y="-99.8" font-family="Times,serif" font-size="14.00" fill="#000000">AppComponent</text>
</g>
<!-- AppComponent&#45;&gt;AppModule -->
<g id="edge4" class="edge">
<title>AppComponent&#45;&gt;AppModule</title>
<path fill="none" stroke="#000000" d="M8435,-122.0908C8435,-145.1328 8435,-182 8435,-182 8435,-182 4533.7194,-182 4533.7194,-182"/>
<polygon fill="#000000" stroke="#000000" points="4533.7194,-178.5001 4523.7194,-182 4533.7193,-185.5001 4533.7194,-178.5001"/>
</g>
<!-- LoginComponent -->
<g id="node5" class="node">
<title>LoginComponent</title>
<polygon fill="#ffffb3" stroke="#000000" points="8364.2758,-122 8249.7242,-122 8249.7242,-86 8364.2758,-86 8364.2758,-122"/>
<text text-anchor="middle" x="8307" y="-99.8" font-family="Times,serif" font-size="14.00" fill="#000000">LoginComponent</text>
</g>
<!-- LoginComponent&#45;&gt;AppModule -->
<g id="edge5" class="edge">
<title>LoginComponent&#45;&gt;AppModule</title>
<path fill="none" stroke="#000000" d="M8307,-122.2479C8307,-145.0179 8307,-181 8307,-181 8307,-181 4533.977,-181 4533.977,-181"/>
<polygon fill="#000000" stroke="#000000" points="4533.9771,-177.5001 4523.977,-181 4533.977,-184.5001 4533.9771,-177.5001"/>
</g>
<!-- ErrorComponent -->
<g id="node6" class="node">
<title>ErrorComponent</title>
<polygon fill="#ffffb3" stroke="#000000" points="8231.3669,-122 8120.6331,-122 8120.6331,-86 8231.3669,-86 8231.3669,-122"/>
<text text-anchor="middle" x="8176" y="-99.8" font-family="Times,serif" font-size="14.00" fill="#000000">ErrorComponent</text>
</g>
<!-- ErrorComponent&#45;&gt;AppModule -->
<g id="edge6" class="edge">
<title>ErrorComponent&#45;&gt;AppModule</title>
<path fill="none" stroke="#000000" d="M8176,-122.1554C8176,-144.3519 8176,-179 8176,-179 8176,-179 4533.803,-179 4533.803,-179"/>
<polygon fill="#000000" stroke="#000000" points="4533.803,-175.5001 4523.803,-179 4533.803,-182.5001 4533.803,-175.5001"/>
</g>
<!-- ProfileComponent -->
<g id="node7" class="node">
<title>ProfileComponent</title>
<polygon fill="#ffffb3" stroke="#000000" points="8102.9328,-122 7983.0672,-122 7983.0672,-86 8102.9328,-86 8102.9328,-122"/>
<text text-anchor="middle" x="8043" y="-99.8" font-family="Times,serif" font-size="14.00" fill="#000000">ProfileComponent</text>
</g>
<!-- ProfileComponent&#45;&gt;AppModule -->
<g id="edge7" class="edge">
<title>ProfileComponent&#45;&gt;AppModule</title>
<path fill="none" stroke="#000000" d="M8043,-122.2921C8043,-144.2057 8043,-178 8043,-178 8043,-178 4533.8456,-178 4533.8456,-178"/>
<polygon fill="#000000" stroke="#000000" points="4533.8456,-174.5001 4523.8456,-178 4533.8456,-181.5001 4533.8456,-174.5001"/>
</g>
<!-- RequestModalComponent -->
<g id="node8" class="node">
<title>RequestModalComponent</title>
<polygon fill="#ffffb3" stroke="#000000" points="7965.4832,-122 7802.5168,-122 7802.5168,-86 7965.4832,-86 7965.4832,-122"/>
<text text-anchor="middle" x="7884" y="-99.8" font-family="Times,serif" font-size="14.00" fill="#000000">RequestModalComponent</text>
</g>
<!-- RequestModalComponent&#45;&gt;AppModule -->
<g id="edge8" class="edge">
<title>RequestModalComponent&#45;&gt;AppModule</title>
<path fill="none" stroke="#000000" d="M7884,-122.1686C7884,-143.498 7884,-176 7884,-176 7884,-176 4533.7865,-176 4533.7865,-176"/>
<polygon fill="#000000" stroke="#000000" points="4533.7865,-172.5001 4523.7865,-176 4533.7864,-179.5001 4533.7865,-172.5001"/>
</g>
<!-- ExpirationModalComponent -->
<g id="node9" class="node">
<title>ExpirationModalComponent</title>
<polygon fill="#ffffb3" stroke="#000000" points="7784.4818,-122 7607.5182,-122 7607.5182,-86 7784.4818,-86 7784.4818,-122"/>
<text text-anchor="middle" x="7696" y="-99.8" font-family="Times,serif" font-size="14.00" fill="#000000">ExpirationModalComponent</text>
</g>
<!-- ExpirationModalComponent&#45;&gt;AppModule -->
<g id="edge9" class="edge">
<title>ExpirationModalComponent&#45;&gt;AppModule</title>
<path fill="none" stroke="#000000" d="M7696,-122.2843C7696,-143.3211 7696,-175 7696,-175 7696,-175 4533.8123,-175 4533.8123,-175"/>
<polygon fill="#000000" stroke="#000000" points="4533.8124,-171.5001 4523.8123,-175 4533.8123,-178.5001 4533.8124,-171.5001"/>
</g>
<!-- EditCarreraModalComponent -->
<g id="node10" class="node">
<title>EditCarreraModalComponent</title>
<polygon fill="#ffffb3" stroke="#000000" points="7589.6783,-122 7406.3217,-122 7406.3217,-86 7589.6783,-86 7589.6783,-122"/>
<text text-anchor="middle" x="7498" y="-99.8" font-family="Times,serif" font-size="14.00" fill="#000000">EditCarreraModalComponent</text>
</g>
<!-- EditCarreraModalComponent&#45;&gt;AppModule -->
<g id="edge10" class="edge">
<title>EditCarreraModalComponent&#45;&gt;AppModule</title>
<path fill="none" stroke="#000000" d="M7498,-122.0267C7498,-142.7672 7498,-174 7498,-174 7498,-174 4533.7729,-174 4533.7729,-174"/>
<polygon fill="#000000" stroke="#000000" points="4533.7729,-170.5001 4523.7729,-174 4533.7729,-177.5001 4533.7729,-170.5001"/>
</g>
<!-- AddTGModalComponent -->
<g id="node11" class="node">
<title>AddTGModalComponent</title>
<polygon fill="#ffffb3" stroke="#000000" points="7388.1484,-122 7227.8516,-122 7227.8516,-86 7388.1484,-86 7388.1484,-122"/>
<text text-anchor="middle" x="7308" y="-99.8" font-family="Times,serif" font-size="14.00" fill="#000000">AddTGModalComponent</text>
</g>
<!-- AddTGModalComponent&#45;&gt;AppModule -->
<g id="edge11" class="edge">
<title>AddTGModalComponent&#45;&gt;AppModule</title>
<path fill="none" stroke="#000000" d="M7308,-122.2228C7308,-142.3652 7308,-172 7308,-172 7308,-172 4533.8647,-172 4533.8647,-172"/>
<polygon fill="#000000" stroke="#000000" points="4533.8647,-168.5001 4523.8647,-172 4533.8647,-175.5001 4533.8647,-168.5001"/>
</g>
<!-- AddFAModalComponent -->
<g id="node12" class="node">
<title>AddFAModalComponent</title>
<polygon fill="#ffffb3" stroke="#000000" points="7209.878,-122 7050.122,-122 7050.122,-86 7209.878,-86 7209.878,-122"/>
<text text-anchor="middle" x="7130" y="-99.8" font-family="Times,serif" font-size="14.00" fill="#000000">AddFAModalComponent</text>
</g>
<!-- AddFAModalComponent&#45;&gt;AppModule -->
<g id="edge12" class="edge">
<title>AddFAModalComponent&#45;&gt;AppModule</title>
<path fill="none" stroke="#000000" d="M7130,-122.308C7130,-142.1455 7130,-171 7130,-171 7130,-171 4533.8607,-171 4533.8607,-171"/>
<polygon fill="#000000" stroke="#000000" points="4533.8607,-167.5001 4523.8607,-171 4533.8606,-174.5001 4533.8607,-167.5001"/>
</g>
<!-- EditHabilidadModalComponent -->
<g id="node13" class="node">
<title>EditHabilidadModalComponent</title>
<polygon fill="#ffffb3" stroke="#000000" points="7032.4241,-122 6835.5759,-122 6835.5759,-86 7032.4241,-86 7032.4241,-122"/>
<text text-anchor="middle" x="6934" y="-99.8" font-family="Times,serif" font-size="14.00" fill="#000000">EditHabilidadModalComponent</text>
</g>
<!-- EditHabilidadModalComponent&#45;&gt;AppModule -->
<g id="edge13" class="edge">
<title>EditHabilidadModalComponent&#45;&gt;AppModule</title>
<path fill="none" stroke="#000000" d="M6934,-122.1061C6934,-141.3391 6934,-169 6934,-169 6934,-169 4533.7863,-169 4533.7863,-169"/>
<polygon fill="#000000" stroke="#000000" points="4533.7864,-165.5001 4523.7863,-169 4533.7863,-172.5001 4533.7864,-165.5001"/>
</g>
<!-- EditBasisModalComponent -->
<g id="node14" class="node">
<title>EditBasisModalComponent</title>
<polygon fill="#ffffb3" stroke="#000000" points="6817.5476,-122 6646.4524,-122 6646.4524,-86 6817.5476,-86 6817.5476,-122"/>
<text text-anchor="middle" x="6732" y="-99.8" font-family="Times,serif" font-size="14.00" fill="#000000">EditBasisModalComponent</text>
</g>
<!-- EditBasisModalComponent&#45;&gt;AppModule -->
<g id="edge14" class="edge">
<title>EditBasisModalComponent&#45;&gt;AppModule</title>
<path fill="none" stroke="#000000" d="M6732,-122.1686C6732,-141.0898 6732,-168 6732,-168 6732,-168 4533.9502,-168 4533.9502,-168"/>
<polygon fill="#000000" stroke="#000000" points="4533.9503,-164.5001 4523.9502,-168 4533.9502,-171.5001 4533.9503,-164.5001"/>
</g>
<!-- ComentarModalComponent -->
<g id="node15" class="node">
<title>ComentarModalComponent</title>
<polygon fill="#ffffb3" stroke="#000000" points="6628.5898,-122 6455.4102,-122 6455.4102,-86 6628.5898,-86 6628.5898,-122"/>
<text text-anchor="middle" x="6542" y="-99.8" font-family="Times,serif" font-size="14.00" fill="#000000">ComentarModalComponent</text>
</g>
<!-- ComentarModalComponent&#45;&gt;AppModule -->
<g id="edge15" class="edge">
<title>ComentarModalComponent&#45;&gt;AppModule</title>
<path fill="none" stroke="#000000" d="M6542,-122.2222C6542,-140.8285 6542,-167 6542,-167 6542,-167 4534.0828,-167 4534.0828,-167"/>
<polygon fill="#000000" stroke="#000000" points="4534.0828,-163.5001 4524.0828,-167 4534.0827,-170.5001 4534.0828,-163.5001"/>
</g>
<!-- PanelAdminComponent -->
<g id="node16" class="node">
<title>PanelAdminComponent</title>
<polygon fill="#ffffb3" stroke="#000000" points="6437.8229,-122 6286.1771,-122 6286.1771,-86 6437.8229,-86 6437.8229,-122"/>
<text text-anchor="middle" x="6362" y="-99.8" font-family="Times,serif" font-size="14.00" fill="#000000">PanelAdminComponent</text>
</g>
<!-- PanelAdminComponent&#45;&gt;AppModule -->
<g id="edge16" class="edge">
<title>PanelAdminComponent&#45;&gt;AppModule</title>
<path fill="none" stroke="#000000" d="M6362,-122.302C6362,-140.2699 6362,-165 6362,-165 6362,-165 4533.9024,-165 4533.9024,-165"/>
<polygon fill="#000000" stroke="#000000" points="4533.9024,-161.5001 4523.9024,-165 4533.9023,-168.5001 4533.9024,-161.5001"/>
</g>
<!-- ScrollPointDirective -->
<g id="node17" class="node">
<title>ScrollPointDirective</title>
<polygon fill="#ffffb3" stroke="#000000" points="6268.5856,-122 6137.4144,-122 6137.4144,-86 6268.5856,-86 6268.5856,-122"/>
<text text-anchor="middle" x="6203" y="-99.8" font-family="Times,serif" font-size="14.00" fill="#000000">ScrollPointDirective</text>
</g>
<!-- ScrollPointDirective&#45;&gt;AppModule -->
<g id="edge17" class="edge">
<title>ScrollPointDirective&#45;&gt;AppModule</title>
<path fill="none" stroke="#000000" d="M6203,-122.002C6203,-139.6754 6203,-164 6203,-164 6203,-164 4533.6891,-164 4533.6891,-164"/>
<polygon fill="#000000" stroke="#000000" points="4533.6891,-160.5001 4523.6891,-164 4533.689,-167.5001 4533.6891,-160.5001"/>
</g>
<!-- SearchComponent -->
<g id="node18" class="node">
<title>SearchComponent</title>
<polygon fill="#ffffb3" stroke="#000000" points="6119.9201,-122 6000.0799,-122 6000.0799,-86 6119.9201,-86 6119.9201,-122"/>
<text text-anchor="middle" x="6060" y="-99.8" font-family="Times,serif" font-size="14.00" fill="#000000">SearchComponent</text>
</g>
<!-- SearchComponent&#45;&gt;AppModule -->
<g id="edge18" class="edge">
<title>SearchComponent&#45;&gt;AppModule</title>
<path fill="none" stroke="#000000" d="M6060,-122.0225C6060,-139.3734 6060,-163 6060,-163 6060,-163 4533.8012,-163 4533.8012,-163"/>
<polygon fill="#000000" stroke="#000000" points="4533.8013,-159.5001 4523.8012,-163 4533.8012,-166.5001 4533.8013,-159.5001"/>
</g>
<!-- IdeaComponent -->
<g id="node19" class="node">
<title>IdeaComponent</title>
<polygon fill="#ffffb3" stroke="#000000" points="5982.923,-122 5877.077,-122 5877.077,-86 5982.923,-86 5982.923,-122"/>
<text text-anchor="middle" x="5930" y="-99.8" font-family="Times,serif" font-size="14.00" fill="#000000">IdeaComponent</text>
</g>
<!-- IdeaComponent&#45;&gt;AppModule -->
<g id="edge19" class="edge">
<title>IdeaComponent&#45;&gt;AppModule</title>
<path fill="none" stroke="#000000" d="M5930,-122.0352C5930,-138.7344 5930,-161 5930,-161 5930,-161 4533.7742,-161 4533.7742,-161"/>
<polygon fill="#000000" stroke="#000000" points="4533.7743,-157.5001 4523.7742,-161 4533.7742,-164.5001 4533.7743,-157.5001"/>
</g>
<!-- AdminCrudComponent -->
<g id="node20" class="node">
<title>AdminCrudComponent</title>
<polygon fill="#ffffb3" stroke="#000000" points="5859.2176,-122 5710.7824,-122 5710.7824,-86 5859.2176,-86 5859.2176,-122"/>
<text text-anchor="middle" x="5785" y="-99.8" font-family="Times,serif" font-size="14.00" fill="#000000">AdminCrudComponent</text>
</g>
<!-- AdminCrudComponent&#45;&gt;AppModule -->
<g id="edge20" class="edge">
<title>AdminCrudComponent&#45;&gt;AppModule</title>
<path fill="none" stroke="#000000" d="M5785,-122.027C5785,-138.3976 5785,-160 5785,-160 5785,-160 4533.8774,-160 4533.8774,-160"/>
<polygon fill="#000000" stroke="#000000" points="4533.8774,-156.5001 4523.8774,-160 4533.8773,-163.5001 4533.8774,-156.5001"/>
</g>
<!-- CrearIdeaModalComponent -->
<g id="node21" class="node">
<title>CrearIdeaModalComponent</title>
<polygon fill="#ffffb3" stroke="#000000" points="5692.559,-122 5519.441,-122 5519.441,-86 5692.559,-86 5692.559,-122"/>
<text text-anchor="middle" x="5606" y="-99.8" font-family="Times,serif" font-size="14.00" fill="#000000">CrearIdeaModalComponent</text>
</g>
<!-- CrearIdeaModalComponent&#45;&gt;AppModule -->
<g id="edge21" class="edge">
<title>CrearIdeaModalComponent&#45;&gt;AppModule</title>
<path fill="none" stroke="#000000" d="M5606,-122.2819C5606,-137.9478 5606,-158 5606,-158 5606,-158 4533.6731,-158 4533.6731,-158"/>
<polygon fill="#000000" stroke="#000000" points="4533.6732,-154.5001 4523.6731,-158 4533.6731,-161.5001 4533.6732,-154.5001"/>
</g>
<!-- IdeasProyectoModalComponent -->
<g id="node22" class="node">
<title>IdeasProyectoModalComponent</title>
<polygon fill="#ffffb3" stroke="#000000" points="5501.6797,-122 5304.3203,-122 5304.3203,-86 5501.6797,-86 5501.6797,-122"/>
<text text-anchor="middle" x="5403" y="-99.8" font-family="Times,serif" font-size="14.00" fill="#000000">IdeasProyectoModalComponent</text>
</g>
<!-- IdeasProyectoModalComponent&#45;&gt;AppModule -->
<g id="edge22" class="edge">
<title>IdeasProyectoModalComponent&#45;&gt;AppModule</title>
<path fill="none" stroke="#000000" d="M5403,-122.2396C5403,-137.5706 5403,-157 5403,-157 5403,-157 4533.6642,-157 4533.6642,-157"/>
<polygon fill="#000000" stroke="#000000" points="4533.6642,-153.5001 4523.6642,-157 4533.6642,-160.5001 4533.6642,-153.5001"/>
</g>
<!-- AsociarTGModalComponent -->
<g id="node23" class="node">
<title>AsociarTGModalComponent</title>
<polygon fill="#ffffb3" stroke="#000000" points="5286.073,-122 5105.927,-122 5105.927,-86 5286.073,-86 5286.073,-122"/>
<text text-anchor="middle" x="5196" y="-99.8" font-family="Times,serif" font-size="14.00" fill="#000000">AsociarTGModalComponent</text>
</g>
<!-- AsociarTGModalComponent&#45;&gt;AppModule -->
<g id="edge23" class="edge">
<title>AsociarTGModalComponent&#45;&gt;AppModule</title>
<path fill="none" stroke="#000000" d="M5196,-122.1871C5196,-137.1824 5196,-156 5196,-156 5196,-156 4533.7357,-156 4533.7357,-156"/>
<polygon fill="#000000" stroke="#000000" points="4533.7358,-152.5001 4523.7357,-156 4533.7357,-159.5001 4533.7358,-152.5001"/>
</g>
<!-- UploadImageModalComponent -->
<g id="node24" class="node">
<title>UploadImageModalComponent</title>
<polygon fill="#ffffb3" stroke="#000000" points="5088.0744,-122 4893.9256,-122 4893.9256,-86 5088.0744,-86 5088.0744,-122"/>
<text text-anchor="middle" x="4991" y="-99.8" font-family="Times,serif" font-size="14.00" fill="#000000">UploadImageModalComponent</text>
</g>
<!-- UploadImageModalComponent&#45;&gt;AppModule -->
<g id="edge24" class="edge">
<title>UploadImageModalComponent&#45;&gt;AppModule</title>
<path fill="none" stroke="#000000" d="M4991,-122.0511C4991,-136.373 4991,-154 4991,-154 4991,-154 4534.0866,-154 4534.0866,-154"/>
<polygon fill="#000000" stroke="#000000" points="4534.0867,-150.5001 4524.0866,-154 4534.0866,-157.5001 4534.0867,-150.5001"/>
</g>
<!-- CrudCarreraModalComponent -->
<g id="node25" class="node">
<title>CrudCarreraModalComponent</title>
<polygon fill="#ffffb3" stroke="#000000" points="4875.8417,-122 4688.1583,-122 4688.1583,-86 4875.8417,-86 4875.8417,-122"/>
<text text-anchor="middle" x="4782" y="-99.8" font-family="Times,serif" font-size="14.00" fill="#000000">CrudCarreraModalComponent</text>
</g>
<!-- CrudCarreraModalComponent&#45;&gt;AppModule -->
<g id="edge25" class="edge">
<title>CrudCarreraModalComponent&#45;&gt;AppModule</title>
<path fill="none" stroke="#000000" d="M4782,-122.2458C4782,-136.1772 4782,-153 4782,-153 4782,-153 4533.7137,-153 4533.7137,-153"/>
<polygon fill="#000000" stroke="#000000" points="4533.7137,-149.5001 4523.7137,-153 4533.7137,-156.5001 4533.7137,-149.5001"/>
</g>
<!-- DetalleIdeaModalComponent -->
<g id="node26" class="node">
<title>DetalleIdeaModalComponent</title>
<polygon fill="#ffffb3" stroke="#000000" points="4670.3946,-122 4487.6054,-122 4487.6054,-86 4670.3946,-86 4670.3946,-122"/>
<text text-anchor="middle" x="4579" y="-99.8" font-family="Times,serif" font-size="14.00" fill="#000000">DetalleIdeaModalComponent</text>
</g>
<!-- DetalleIdeaModalComponent&#45;&gt;AppModule -->
<g id="edge26" class="edge">
<title>DetalleIdeaModalComponent&#45;&gt;AppModule</title>
<path fill="none" stroke="#000000" d="M4505.8155,-122.1061C4505.8155,-122.1061 4505.8155,-140.991 4505.8155,-140.991"/>
<polygon fill="#000000" stroke="#000000" points="4502.3156,-140.9909 4505.8155,-150.991 4509.3156,-140.991 4502.3156,-140.9909"/>
</g>
<!-- CrudTagModalComponent -->
<g id="node27" class="node">
<title>CrudTagModalComponent</title>
<polygon fill="#ffffb3" stroke="#000000" points="4469.647,-122 4302.353,-122 4302.353,-86 4469.647,-86 4469.647,-122"/>
<text text-anchor="middle" x="4386" y="-99.8" font-family="Times,serif" font-size="14.00" fill="#000000">CrudTagModalComponent</text>
</g>
<!-- CrudTagModalComponent&#45;&gt;AppModule -->
<g id="edge27" class="edge">
<title>CrudTagModalComponent&#45;&gt;AppModule</title>
<path fill="none" stroke="#000000" d="M4454.9976,-122.1061C4454.9976,-122.1061 4454.9976,-140.991 4454.9976,-140.991"/>
<polygon fill="#000000" stroke="#000000" points="4451.4976,-140.9909 4454.9976,-150.991 4458.4976,-140.991 4451.4976,-140.9909"/>
</g>
<!-- OperacionIdeaModalComponent -->
<g id="node28" class="node">
<title>OperacionIdeaModalComponent</title>
<polygon fill="#ffffb3" stroke="#000000" points="4284.2738,-122 4083.7262,-122 4083.7262,-86 4284.2738,-86 4284.2738,-122"/>
<text text-anchor="middle" x="4184" y="-99.8" font-family="Times,serif" font-size="14.00" fill="#000000">OperacionIdeaModalComponent</text>
</g>
<!-- OperacionIdeaModalComponent&#45;&gt;AppModule -->
<g id="edge28" class="edge">
<title>OperacionIdeaModalComponent&#45;&gt;AppModule</title>
<path fill="none" stroke="#000000" d="M4184,-122.2458C4184,-136.1772 4184,-153 4184,-153 4184,-153 4430.2506,-153 4430.2506,-153"/>
<polygon fill="#000000" stroke="#000000" points="4430.2506,-156.5001 4440.2506,-153 4430.2506,-149.5001 4430.2506,-156.5001"/>
</g>
<!-- CrudHabilidadModalComponent -->
<g id="node29" class="node">
<title>CrudHabilidadModalComponent</title>
<polygon fill="#ffffb3" stroke="#000000" points="4065.587,-122 3864.413,-122 3864.413,-86 4065.587,-86 4065.587,-122"/>
<text text-anchor="middle" x="3965" y="-99.8" font-family="Times,serif" font-size="14.00" fill="#000000">CrudHabilidadModalComponent</text>
</g>
<!-- CrudHabilidadModalComponent&#45;&gt;AppModule -->
<g id="edge29" class="edge">
<title>CrudHabilidadModalComponent&#45;&gt;AppModule</title>
<path fill="none" stroke="#000000" d="M3965,-122.0511C3965,-136.373 3965,-154 3965,-154 3965,-154 4430.1297,-154 4430.1297,-154"/>
<polygon fill="#000000" stroke="#000000" points="4430.1297,-157.5001 4440.1297,-154 4430.1296,-150.5001 4430.1297,-157.5001"/>
</g>
<!-- CrudEnfasisModalComponent -->
<g id="node30" class="node">
<title>CrudEnfasisModalComponent</title>
<polygon fill="#ffffb3" stroke="#000000" points="3846.587,-122 3659.413,-122 3659.413,-86 3846.587,-86 3846.587,-122"/>
<text text-anchor="middle" x="3753" y="-99.8" font-family="Times,serif" font-size="14.00" fill="#000000">CrudEnfasisModalComponent</text>
</g>
<!-- CrudEnfasisModalComponent&#45;&gt;AppModule -->
<g id="edge30" class="edge">
<title>CrudEnfasisModalComponent&#45;&gt;AppModule</title>
<path fill="none" stroke="#000000" d="M3753,-122.1871C3753,-137.1824 3753,-156 3753,-156 3753,-156 4430.1875,-156 4430.1875,-156"/>
<polygon fill="#000000" stroke="#000000" points="4430.1875,-159.5001 4440.1875,-156 4430.1874,-152.5001 4430.1875,-159.5001"/>
</g>
<!-- AdminRulesComponent -->
<g id="node31" class="node">
<title>AdminRulesComponent</title>
<polygon fill="#ffffb3" stroke="#000000" points="3641.1066,-122 3488.8934,-122 3488.8934,-86 3641.1066,-86 3641.1066,-122"/>
<text text-anchor="middle" x="3565" y="-99.8" font-family="Times,serif" font-size="14.00" fill="#000000">AdminRulesComponent</text>
</g>
<!-- AdminRulesComponent&#45;&gt;AppModule -->
<g id="edge31" class="edge">
<title>AdminRulesComponent&#45;&gt;AppModule</title>
<path fill="none" stroke="#000000" d="M3565,-122.2396C3565,-137.5706 3565,-157 3565,-157 3565,-157 4430.2156,-157 4430.2156,-157"/>
<polygon fill="#000000" stroke="#000000" points="4430.2156,-160.5001 4440.2156,-157 4430.2155,-153.5001 4430.2156,-160.5001"/>
</g>
<!-- AdminEstadisticaComponent -->
<g id="node32" class="node">
<title>AdminEstadisticaComponent</title>
<polygon fill="#ffffb3" stroke="#000000" points="3471.3682,-122 3290.6318,-122 3290.6318,-86 3471.3682,-86 3471.3682,-122"/>
<text text-anchor="middle" x="3381" y="-99.8" font-family="Times,serif" font-size="14.00" fill="#000000">AdminEstadisticaComponent</text>
</g>
<!-- AdminEstadisticaComponent&#45;&gt;AppModule -->
<g id="edge32" class="edge">
<title>AdminEstadisticaComponent&#45;&gt;AppModule</title>
<path fill="none" stroke="#000000" d="M3381,-122.2819C3381,-137.9478 3381,-158 3381,-158 3381,-158 4430.1839,-158 4430.1839,-158"/>
<polygon fill="#000000" stroke="#000000" points="4430.184,-161.5001 4440.1839,-158 4430.1839,-154.5001 4430.184,-161.5001"/>
</g>
<!-- CompartirIdeaModalComponent -->
<g id="node33" class="node">
<title>CompartirIdeaModalComponent</title>
<polygon fill="#ffffb3" stroke="#000000" points="3272.5168,-122 3073.4832,-122 3073.4832,-86 3272.5168,-86 3272.5168,-122"/>
<text text-anchor="middle" x="3173" y="-99.8" font-family="Times,serif" font-size="14.00" fill="#000000">CompartirIdeaModalComponent</text>
</g>
<!-- CompartirIdeaModalComponent&#45;&gt;AppModule -->
<g id="edge33" class="edge">
<title>CompartirIdeaModalComponent&#45;&gt;AppModule</title>
<path fill="none" stroke="#000000" d="M3173,-122.027C3173,-138.3976 3173,-160 3173,-160 3173,-160 4430.2968,-160 4430.2968,-160"/>
<polygon fill="#000000" stroke="#000000" points="4430.2968,-163.5001 4440.2968,-160 4430.2967,-156.5001 4430.2968,-163.5001"/>
</g>
<!-- LeaderBoardComponent -->
<g id="node34" class="node">
<title>LeaderBoardComponent</title>
<polygon fill="#ffffb3" stroke="#000000" points="3055.4017,-122 2900.5983,-122 2900.5983,-86 3055.4017,-86 3055.4017,-122"/>
<text text-anchor="middle" x="2978" y="-99.8" font-family="Times,serif" font-size="14.00" fill="#000000">LeaderBoardComponent</text>
</g>
<!-- LeaderBoardComponent&#45;&gt;AppModule -->
<g id="edge34" class="edge">
<title>LeaderBoardComponent&#45;&gt;AppModule</title>
<path fill="none" stroke="#000000" d="M2978,-122.0352C2978,-138.7344 2978,-161 2978,-161 2978,-161 4430.2047,-161 4430.2047,-161"/>
<polygon fill="#000000" stroke="#000000" points="4430.2047,-164.5001 4440.2047,-161 4430.2047,-157.5001 4430.2047,-164.5001"/>
</g>
<!-- AppComponent  -->
<g id="node37" class="node">
<title>AppComponent </title>
<polygon fill="#80b1d3" stroke="#000000" points="4536.439,-252 4427.561,-252 4427.561,-216 4536.439,-216 4536.439,-252"/>
<text text-anchor="middle" x="4482" y="-229.8" font-family="Times,serif" font-size="14.00" fill="#000000">AppComponent </text>
</g>
<!-- AppModule&#45;&gt;AppComponent  -->
<g id="edge36" class="edge">
<title>AppModule&#45;&gt;AppComponent </title>
<path fill="none" stroke="#000000" stroke-dasharray="1,5" d="M4482,-187.1061C4482,-187.1061 4482,-205.991 4482,-205.991"/>
<polygon fill="#000000" stroke="#000000" points="4478.5001,-205.9909 4482,-215.991 4485.5001,-205.991 4478.5001,-205.9909"/>
</g>
<!-- AppRoutingModule -->
<g id="node36" class="node">
<title>AppRoutingModule</title>
<polygon fill="#8dd3c7" stroke="#000000" points="2877.2744,-122 2874.2744,-126 2853.2744,-126 2850.2744,-122 2748.7256,-122 2748.7256,-86 2877.2744,-86 2877.2744,-122"/>
<text text-anchor="middle" x="2813" y="-99.8" font-family="Times,serif" font-size="14.00" fill="#000000">AppRoutingModule</text>
</g>
<!-- AppRoutingModule&#45;&gt;AppModule -->
<g id="edge35" class="edge">
<title>AppRoutingModule&#45;&gt;AppModule</title>
<path fill="none" stroke="#000000" d="M2813,-122.0225C2813,-139.3734 2813,-163 2813,-163 2813,-163 4430.3272,-163 4430.3272,-163"/>
<polygon fill="#000000" stroke="#000000" points="4430.3272,-166.5001 4440.3272,-163 4430.3272,-159.5001 4430.3272,-166.5001"/>
</g>
<!-- PersonalidadService -->
<g id="node38" class="node">
<title>PersonalidadService</title>
<ellipse fill="#fdb462" stroke="#000000" cx="2635" cy="-104" rx="89.7441" ry="18"/>
<text text-anchor="middle" x="2635" y="-99.8" font-family="Times,serif" font-size="14.00" fill="#000000">PersonalidadService</text>
</g>
<!-- PersonalidadService&#45;&gt;AppModule -->
<g id="edge37" class="edge">
<title>PersonalidadService&#45;&gt;AppModule</title>
<path fill="none" stroke="#000000" d="M2635,-122.002C2635,-139.6754 2635,-164 2635,-164 2635,-164 4429.9525,-164 4429.9525,-164"/>
<polygon fill="#000000" stroke="#000000" points="4429.9526,-167.5001 4439.9525,-164 4429.9525,-160.5001 4429.9526,-167.5001"/>
</g>
<!-- CarreraService -->
<g id="node39" class="node">
<title>CarreraService</title>
<ellipse fill="#fdb462" stroke="#000000" cx="2458" cy="-104" rx="68.8734" ry="18"/>
<text text-anchor="middle" x="2458" y="-99.8" font-family="Times,serif" font-size="14.00" fill="#000000">CarreraService</text>
</g>
<!-- CarreraService&#45;&gt;AppModule -->
<g id="edge38" class="edge">
<title>CarreraService&#45;&gt;AppModule</title>
<path fill="none" stroke="#000000" d="M2458,-122.302C2458,-140.2699 2458,-165 2458,-165 2458,-165 4430.1905,-165 4430.1905,-165"/>
<polygon fill="#000000" stroke="#000000" points="4430.1905,-168.5001 4440.1905,-165 4430.1904,-161.5001 4430.1905,-168.5001"/>
</g>
<!-- UsuarioService -->
<g id="node40" class="node">
<title>UsuarioService</title>
<ellipse fill="#fdb462" stroke="#000000" cx="2301" cy="-104" rx="70.622" ry="18"/>
<text text-anchor="middle" x="2301" y="-99.8" font-family="Times,serif" font-size="14.00" fill="#000000">UsuarioService</text>
</g>
<!-- UsuarioService&#45;&gt;AppModule -->
<g id="edge39" class="edge">
<title>UsuarioService&#45;&gt;AppModule</title>
<path fill="none" stroke="#000000" d="M2301,-122.2222C2301,-140.8285 2301,-167 2301,-167 2301,-167 4429.8967,-167 4429.8967,-167"/>
<polygon fill="#000000" stroke="#000000" points="4429.8967,-170.5001 4439.8967,-167 4429.8967,-163.5001 4429.8967,-170.5001"/>
</g>
<!-- GustoService -->
<g id="node41" class="node">
<title>GustoService</title>
<ellipse fill="#fdb462" stroke="#000000" cx="2149" cy="-104" rx="63.1189" ry="18"/>
<text text-anchor="middle" x="2149" y="-99.8" font-family="Times,serif" font-size="14.00" fill="#000000">GustoService</text>
</g>
<!-- GustoService&#45;&gt;AppModule -->
<g id="edge40" class="edge">
<title>GustoService&#45;&gt;AppModule</title>
<path fill="none" stroke="#000000" d="M2149,-122.1686C2149,-141.0898 2149,-168 2149,-168 2149,-168 4430.017,-168 4430.017,-168"/>
<polygon fill="#000000" stroke="#000000" points="4430.017,-171.5001 4440.017,-168 4430.0169,-164.5001 4430.017,-171.5001"/>
</g>
<!-- HabilidadService -->
<g id="node42" class="node">
<title>HabilidadService</title>
<ellipse fill="#fdb462" stroke="#000000" cx="1990" cy="-104" rx="78.1462" ry="18"/>
<text text-anchor="middle" x="1990" y="-99.8" font-family="Times,serif" font-size="14.00" fill="#000000">HabilidadService</text>
</g>
<!-- HabilidadService&#45;&gt;AppModule -->
<g id="edge41" class="edge">
<title>HabilidadService&#45;&gt;AppModule</title>
<path fill="none" stroke="#000000" d="M1990,-122.1061C1990,-141.3391 1990,-169 1990,-169 1990,-169 4430.3106,-169 4430.3106,-169"/>
<polygon fill="#000000" stroke="#000000" points="4430.3106,-172.5001 4440.3106,-169 4430.3105,-165.5001 4430.3106,-172.5001"/>
</g>
<!-- CualidadService -->
<g id="node43" class="node">
<title>CualidadService</title>
<ellipse fill="#fdb462" stroke="#000000" cx="1819" cy="-104" rx="74.7168" ry="18"/>
<text text-anchor="middle" x="1819" y="-99.8" font-family="Times,serif" font-size="14.00" fill="#000000">CualidadService</text>
</g>
<!-- CualidadService&#45;&gt;AppModule -->
<g id="edge42" class="edge">
<title>CualidadService&#45;&gt;AppModule</title>
<path fill="none" stroke="#000000" d="M1819,-122.308C1819,-142.1455 1819,-171 1819,-171 1819,-171 4430.1706,-171 4430.1706,-171"/>
<polygon fill="#000000" stroke="#000000" points="4430.1707,-174.5001 4440.1706,-171 4430.1706,-167.5001 4430.1707,-174.5001"/>
</g>
<!-- AuthService -->
<g id="node44" class="node">
<title>AuthService</title>
<ellipse fill="#fdb462" stroke="#000000" cx="1667" cy="-104" rx="59.1083" ry="18"/>
<text text-anchor="middle" x="1667" y="-99.8" font-family="Times,serif" font-size="14.00" fill="#000000">AuthService</text>
</g>
<!-- AuthService&#45;&gt;AppModule -->
<g id="edge43" class="edge">
<title>AuthService&#45;&gt;AppModule</title>
<path fill="none" stroke="#000000" d="M1667,-122.2228C1667,-142.3652 1667,-172 1667,-172 1667,-172 4430.2983,-172 4430.2983,-172"/>
<polygon fill="#000000" stroke="#000000" points="4430.2983,-175.5001 4440.2983,-172 4430.2982,-168.5001 4430.2983,-175.5001"/>
</g>
<!-- ErrorService -->
<g id="node45" class="node">
<title>ErrorService</title>
<ellipse fill="#fdb462" stroke="#000000" cx="1529" cy="-104" rx="60.2287" ry="18"/>
<text text-anchor="middle" x="1529" y="-99.8" font-family="Times,serif" font-size="14.00" fill="#000000">ErrorService</text>
</g>
<!-- ErrorService&#45;&gt;AppModule -->
<g id="edge44" class="edge">
<title>ErrorService&#45;&gt;AppModule</title>
<path fill="none" stroke="#000000" d="M1529,-122.0267C1529,-142.7672 1529,-174 1529,-174 1529,-174 4430.2555,-174 4430.2555,-174"/>
<polygon fill="#000000" stroke="#000000" points="4430.2555,-177.5001 4440.2555,-174 4430.2554,-170.5001 4430.2555,-177.5001"/>
</g>
<!-- AuthGuard -->
<g id="node46" class="node">
<title>AuthGuard</title>
<ellipse fill="#fdb462" stroke="#000000" cx="1396" cy="-104" rx="54.4566" ry="18"/>
<text text-anchor="middle" x="1396" y="-99.8" font-family="Times,serif" font-size="14.00" fill="#000000">AuthGuard</text>
</g>
<!-- AuthGuard&#45;&gt;AppModule -->
<g id="edge45" class="edge">
<title>AuthGuard&#45;&gt;AppModule</title>
<path fill="none" stroke="#000000" d="M1396,-122.2843C1396,-143.3211 1396,-175 1396,-175 1396,-175 4430.1312,-175 4430.1312,-175"/>
<polygon fill="#000000" stroke="#000000" points="4430.1313,-178.5001 4440.1312,-175 4430.1312,-171.5001 4430.1313,-178.5001"/>
</g>
<!-- AuthReverseGuard -->
<g id="node47" class="node">
<title>AuthReverseGuard</title>
<ellipse fill="#fdb462" stroke="#000000" cx="1238" cy="-104" rx="85.6551" ry="18"/>
<text text-anchor="middle" x="1238" y="-99.8" font-family="Times,serif" font-size="14.00" fill="#000000">AuthReverseGuard</text>
</g>
<!-- AuthReverseGuard&#45;&gt;AppModule -->
<g id="edge46" class="edge">
<title>AuthReverseGuard&#45;&gt;AppModule</title>
<path fill="none" stroke="#000000" d="M1238,-122.1686C1238,-143.498 1238,-176 1238,-176 1238,-176 4430.0955,-176 4430.0955,-176"/>
<polygon fill="#000000" stroke="#000000" points="4430.0956,-179.5001 4440.0955,-176 4430.0955,-172.5001 4430.0956,-179.5001"/>
</g>
<!-- AuthAdminGuard -->
<g id="node48" class="node">
<title>AuthAdminGuard</title>
<ellipse fill="#fdb462" stroke="#000000" cx="1053" cy="-104" rx="81.1052" ry="18"/>
<text text-anchor="middle" x="1053" y="-99.8" font-family="Times,serif" font-size="14.00" fill="#000000">AuthAdminGuard</text>
</g>
<!-- AuthAdminGuard&#45;&gt;AppModule -->
<g id="edge47" class="edge">
<title>AuthAdminGuard&#45;&gt;AppModule</title>
<path fill="none" stroke="#000000" d="M1053,-122.2921C1053,-144.2057 1053,-178 1053,-178 1053,-178 4430.1885,-178 4430.1885,-178"/>
<polygon fill="#000000" stroke="#000000" points="4430.1885,-181.5001 4440.1885,-178 4430.1885,-174.5001 4430.1885,-181.5001"/>
</g>
<!-- IdeaService -->
<g id="node49" class="node">
<title>IdeaService</title>
<ellipse fill="#fdb462" stroke="#000000" cx="897" cy="-104" rx="56.7174" ry="18"/>
<text text-anchor="middle" x="897" y="-99.8" font-family="Times,serif" font-size="14.00" fill="#000000">IdeaService</text>
</g>
<!-- IdeaService&#45;&gt;AppModule -->
<g id="edge48" class="edge">
<title>IdeaService&#45;&gt;AppModule</title>
<path fill="none" stroke="#000000" d="M897,-122.1554C897,-144.3519 897,-179 897,-179 897,-179 4430.1862,-179 4430.1862,-179"/>
<polygon fill="#000000" stroke="#000000" points="4430.1863,-182.5001 4440.1862,-179 4430.1862,-175.5001 4430.1863,-182.5001"/>
</g>
<!-- TagService -->
<g id="node50" class="node">
<title>TagService</title>
<ellipse fill="#fdb462" stroke="#000000" cx="767" cy="-104" rx="55.013" ry="18"/>
<text text-anchor="middle" x="767" y="-99.8" font-family="Times,serif" font-size="14.00" fill="#000000">TagService</text>
</g>
<!-- TagService&#45;&gt;AppModule -->
<g id="edge49" class="edge">
<title>TagService&#45;&gt;AppModule</title>
<path fill="none" stroke="#000000" d="M767,-122.2479C767,-145.0179 767,-181 767,-181 767,-181 4430.2788,-181 4430.2788,-181"/>
<polygon fill="#000000" stroke="#000000" points="4430.2788,-184.5001 4440.2788,-181 4430.2788,-177.5001 4430.2788,-184.5001"/>
</g>
<!-- RuleService -->
<g id="node51" class="node">
<title>RuleService</title>
<ellipse fill="#fdb462" stroke="#000000" cx="636" cy="-104" rx="58.4628" ry="18"/>
<text text-anchor="middle" x="636" y="-99.8" font-family="Times,serif" font-size="14.00" fill="#000000">RuleService</text>
</g>
<!-- RuleService&#45;&gt;AppModule -->
<g id="edge50" class="edge">
<title>RuleService&#45;&gt;AppModule</title>
<path fill="none" stroke="#000000" d="M636,-122.0908C636,-145.1328 636,-182 636,-182 636,-182 4430.1184,-182 4430.1184,-182"/>
<polygon fill="#000000" stroke="#000000" points="4430.1184,-185.5001 4440.1184,-182 4430.1184,-178.5001 4430.1184,-185.5001"/>
</g>
<!-- TrabajoGradoService -->
<g id="node52" class="node">
<title>TrabajoGradoService</title>
<ellipse fill="#fdb462" stroke="#000000" cx="466" cy="-104" rx="94.3002" ry="18"/>
<text text-anchor="middle" x="466" y="-99.8" font-family="Times,serif" font-size="14.00" fill="#000000">TrabajoGradoService</text>
</g>
<!-- TrabajoGradoService&#45;&gt;AppModule -->
<g id="edge51" class="edge">
<title>TrabajoGradoService&#45;&gt;AppModule</title>
<path fill="none" stroke="#000000" d="M466,-122.3228C466,-145.6602 466,-183 466,-183 466,-183 4430.2824,-183 4430.2824,-183"/>
<polygon fill="#000000" stroke="#000000" points="4430.2825,-186.5001 4440.2824,-183 4430.2824,-179.5001 4430.2825,-186.5001"/>
</g>
<!-- LudificacionService -->
<g id="node53" class="node">
<title>LudificacionService</title>
<ellipse fill="#fdb462" stroke="#000000" cx="265" cy="-104" rx="89.1626" ry="18"/>
<text text-anchor="middle" x="265" y="-99.8" font-family="Times,serif" font-size="14.00" fill="#000000">LudificacionService</text>
</g>
<!-- LudificacionService&#45;&gt;AppModule -->
<g id="edge52" class="edge">
<title>LudificacionService&#45;&gt;AppModule</title>
<path fill="none" stroke="#000000" d="M265,-122.3802C265,-146.2785 265,-185 265,-185 265,-185 4430.2629,-185 4430.2629,-185"/>
<polygon fill="#000000" stroke="#000000" points="4430.2629,-188.5001 4440.2629,-185 4430.2628,-181.5001 4430.2629,-188.5001"/>
</g>
<!-- AdminService -->
<g id="node54" class="node">
<title>AdminService</title>
<ellipse fill="#fdb462" stroke="#000000" cx="91" cy="-104" rx="66.6325" ry="18"/>
<text text-anchor="middle" x="91" y="-99.8" font-family="Times,serif" font-size="14.00" fill="#000000">AdminService</text>
</g>
<!-- AdminService&#45;&gt;AppModule -->
<g id="edge53" class="edge">
<title>AdminService&#45;&gt;AppModule</title>
<path fill="none" stroke="#000000" d="M91,-122.1985C91,-146.3563 91,-186 91,-186 91,-186 4430.2974,-186 4430.2974,-186"/>
<polygon fill="#000000" stroke="#000000" points="4430.2974,-189.5001 4440.2974,-186 4430.2973,-182.5001 4430.2974,-189.5001"/>
</g>
</g>
</svg>
